# MagicaVoxel @ ephtracy

# material
mtllib chr_sword.mtl

# normals
vn -1 0 0
vn 1 0 0
vn 0 0 1
vn 0 0 -1
vn 0 -1 0
vn 0 1 0

# texcoords
vt 0.00195313 0.5
vt 0.0332031 0.5
vt 0.0371094 0.5
vt 0.0449219 0.5
vt 0.0605469 0.5
vt 0.166016 0.5
vt 0.634766 0.5
vt 0.638672 0.5
vt 0.962891 0.5
vt 0.974609 0.5
vt 0.978516 0.5
vt 0.982422 0.5
vt 0.994141 0.5

# verts
v -9 2 0.5
v -9 3 0.5
v -9 3 -0.5
v -9 2 -0.5
v -5 10 0.5
v -5 11 0.5
v -5 11 -0.5
v -5 10 -0.5
v -4 8 -2.5
v -4 9 -2.5
v -4 9 -3.5
v -4 8 -3.5
v -4 9 -1.5
v -4 10 -1.5
v -4 10 -2.5
v -4 8 -1.5
v -4 10 -0.5
v -4 11 -0.5
v -4 11 -1.5
v -4 9 -0.5
v -4 11 0.5
v -4 12 0.5
v -4 12 -0.5
v -4 9 0.5
v -4 10 0.5
v -4 8 0.5
v -4 8 -0.5
v -4 3 0.5
v -4 4 0.5
v -4 4 -0.5
v -4 3 -0.5
v -4 1 0.5
v -4 2 0.5
v -4 2 -0.5
v -4 1 -0.5
v -4 10 1.5
v -4 11 1.5
v -3 11 -1.5
v -3 12 -1.5
v -3 12 -2.5
v -3 11 -2.5
v -3 10 -1.5
v -3 10 -2.5
v -3 7 -1.5
v -3 8 -1.5
v -3 8 -2.5
v -3 7 -2.5
v -3 6 -1.5
v -3 6 -2.5
v -3 12 -0.5
v -3 13 -0.5
v -3 13 -1.5
v -3 11 -0.5
v -3 8 -0.5
v -3 9 -0.5
v -3 9 -1.5
v -3 7 -0.5
v -3 6 -0.5
v -3 5 -0.5
v -3 5 -1.5
v -3 12 0.5
v -3 13 0.5
v -3 7 0.5
v -3 8 0.5
v -3 6 0.5
v -3 5 0.5
v -3 4 0.5
v -3 4 -0.5
v -3 11 1.5
v -3 12 1.5
v -3 11 0.5
v -3 9 1.5
v -3 10 1.5
v -3 10 0.5
v -3 9 0.5
v -3 8 1.5
v -3 6 1.5
v -3 7 1.5
v -3 10 2.5
v -3 11 2.5
v -3 9 2.5
v -3 6 2.5
v -3 7 2.5
v -2 11 -2.5
v -2 12 -2.5
v -2 12 -3.5
v -2 11 -3.5
v -2 10 -2.5
v -2 10 -3.5
v -2 9 -2.5
v -2 9 -3.5
v -2 8 -2.5
v -2 8 -3.5
v -2 7 -2.5
v -2 7 -3.5
v -2 12 -1.5
v -2 13 -1.5
v -2 13 -2.5
v -2 13 -0.5
v -2 14 -0.5
v -2 14 -1.5
v -2 4 -0.5
v -2 5 -0.5
v -2 5 -1.5
v -2 4 -1.5
v -2 3 -0.5
v -2 3 -1.5
v -2 2 -0.5
v -2 2 -1.5
v -2 13 0.5
v -2 14 0.5
v -2 1 0.5
v -2 2 0.5
v -2 1 -0.5
v -2 0 0.5
v -2 0 -0.5
v -2 12 1.5
v -2 13 1.5
v -2 12 0.5
v -2 7 1.5
v -2 8 1.5
v -2 8 0.5
v -2 7 0.5
v -2 5 1.5
v -2 6 1.5
v -2 6 0.5
v -2 5 0.5
v -2 4 1.5
v -2 4 0.5
v -2 3 1.5
v -2 3 0.5
v -2 2 1.5
v -2 11 2.5
v -2 12 2.5
v -2 11 1.5
v -2 10 3.5
v -2 11 3.5
v -2 10 2.5
v -1 10 -3.5
v -1 11 -3.5
v -1 11 -4.5
v -1 10 -4.5
v -1 9 -3.5
v -1 9 -4.5
v -1 8 -3.5
v -1 8 -4.5
v 0 9 2.5
v 0 10 2.5
v 0 10 1.5
v 0 9 1.5
v 1 1 0.5
v 1 2 0.5
v 1 2 -0.5
v 1 1 -0.5
v 1 0 0.5
v 1 0 -0.5
v 2 9 2.5
v 2 10 2.5
v 2 10 1.5
v 2 9 1.5
v 3 8 -2.5
v 3 9 -2.5
v 3 9 -3.5
v 3 8 -3.5
v 3 3 -1.5
v 3 4 -1.5
v 3 4 -2.5
v 3 3 -2.5
v 3 2 -1.5
v 3 2 -2.5
v 3 1 -1.5
v 3 1 -2.5
v 3 4 -0.5
v 3 5 -0.5
v 3 5 -1.5
v 3 3 -0.5
v 3 2 -0.5
v 3 1 -0.5
v 3 0 -0.5
v 3 0 -1.5
v 3 1 0.5
v 3 2 0.5
v 3 0 0.5
v 3 4 1.5
v 3 5 1.5
v 3 5 0.5
v 3 4 0.5
v 3 3 1.5
v 3 3 0.5
v 3 2 1.5
v 3 1 1.5
v 3 0 1.5
v 3 11 2.5
v 3 12 2.5
v 3 12 1.5
v 3 11 1.5
v 3 3 2.5
v 3 4 2.5
v 3 2 2.5
v 3 1 2.5
v -3 8 -3.5
v -3 9 -3.5
v -3 9 -2.5
v -3 1 0.5
v -3 1 -0.5
v -3 2 -0.5
v -3 2 0.5
v -2 9 2.5
v -2 9 1.5
v -2 10 1.5
v -1 1 0.5
v -1 1 -0.5
v -1 2 -0.5
v -1 2 0.5
v -1 0 0.5
v -1 0 -0.5
v 1 10 -3.5
v 1 10 -4.5
v 1 11 -4.5
v 1 11 -3.5
v 1 9 -3.5
v 1 9 -4.5
v 1 8 -3.5
v 1 8 -4.5
v 1 9 2.5
v 1 9 1.5
v 1 10 1.5
v 1 10 2.5
v 2 11 -2.5
v 2 11 -3.5
v 2 12 -3.5
v 2 12 -2.5
v 2 10 -2.5
v 2 10 -3.5
v 2 9 -2.5
v 2 9 -3.5
v 2 8 -2.5
v 2 8 -3.5
v 2 7 -2.5
v 2 7 -3.5
v 2 12 -1.5
v 2 13 -2.5
v 2 13 -1.5
v 2 13 -0.5
v 2 14 -1.5
v 2 14 -0.5
v 2 4 -0.5
v 2 4 -1.5
v 2 5 -1.5
v 2 5 -0.5
v 2 3 -0.5
v 2 3 -1.5
v 2 2 -0.5
v 2 2 -1.5
v 2 13 0.5
v 2 14 0.5
v 2 1 0.5
v 2 1 -0.5
v 2 2 0.5
v 2 0 0.5
v 2 0 -0.5
v 2 12 1.5
v 2 12 0.5
v 2 13 1.5
v 2 7 1.5
v 2 7 0.5
v 2 8 0.5
v 2 8 1.5
v 2 5 1.5
v 2 5 0.5
v 2 6 0.5
v 2 6 1.5
v 2 4 1.5
v 2 4 0.5
v 2 3 1.5
v 2 3 0.5
v 2 2 1.5
v 2 11 2.5
v 2 11 1.5
v 2 12 2.5
v 2 10 3.5
v 2 11 3.5
v 3 11 -1.5
v 3 11 -2.5
v 3 12 -2.5
v 3 12 -1.5
v 3 10 -1.5
v 3 10 -2.5
v 3 7 -1.5
v 3 7 -2.5
v 3 8 -1.5
v 3 6 -1.5
v 3 6 -2.5
v 3 12 -0.5
v 3 13 -1.5
v 3 13 -0.5
v 3 8 -0.5
v 3 9 -1.5
v 3 9 -0.5
v 3 7 -0.5
v 3 6 -0.5
v 3 12 0.5
v 3 13 0.5
v 3 7 0.5
v 3 8 0.5
v 3 6 0.5
v 3 11 0.5
v 3 9 1.5
v 3 9 0.5
v 3 10 0.5
v 3 10 1.5
v 3 8 1.5
v 3 6 1.5
v 3 7 1.5
v 3 10 2.5
v 3 9 2.5
v 3 6 2.5
v 3 7 2.5
v 4 8 -2.5
v 4 8 -3.5
v 4 9 -3.5
v 4 9 -2.5
v 4 9 -1.5
v 4 10 -2.5
v 4 10 -1.5
v 4 8 -1.5
v 4 3 -1.5
v 4 3 -2.5
v 4 4 -2.5
v 4 4 -1.5
v 4 2 -1.5
v 4 2 -2.5
v 4 1 -1.5
v 4 1 -2.5
v 4 11 -0.5
v 4 11 -1.5
v 4 12 -1.5
v 4 12 -0.5
v 4 10 -0.5
v 4 9 -0.5
v 4 4 -0.5
v 4 5 -1.5
v 4 5 -0.5
v 4 3 -0.5
v 4 2 -0.5
v 4 1 -0.5
v 4 0 -0.5
v 4 0 -1.5
v 4 11 0.5
v 4 12 0.5
v 4 9 0.5
v 4 10 0.5
v 4 8 0.5
v 4 8 -0.5
v 4 4 0.5
v 4 5 0.5
v 4 3 0.5
v 4 2 0.5
v 4 1 0.5
v 4 0 0.5
v 4 10 1.5
v 4 11 1.5
v 4 4 1.5
v 4 5 1.5
v 4 3 1.5
v 4 2 1.5
v 4 1 1.5
v 4 0 1.5
v 4 11 2.5
v 4 12 1.5
v 4 12 2.5
v 4 3 2.5
v 4 4 2.5
v 4 2 2.5
v 4 1 2.5
v 5 10 0.5
v 5 10 -0.5
v 5 11 -0.5
v 5 11 0.5
v -8 2 0.5
v -8 3 0.5
v -7 2 0.5
v -7 3 0.5
v -6 2 0.5
v -6 3 0.5
v -5 2 0.5
v -5 3 0.5
v -3 3 0.5
v -2 6 2.5
v -2 7 2.5
v -1 13 0.5
v -1 14 0.5
v -1 12 1.5
v -1 13 1.5
v -1 9 1.5
v -1 10 1.5
v -1 8 1.5
v -1 7 1.5
v -1 5 1.5
v -1 6 1.5
v -1 4 1.5
v -1 3 1.5
v -1 2 1.5
v -1 11 2.5
v -1 12 2.5
v -1 6 2.5
v -1 7 2.5
v -1 10 3.5
v -1 11 3.5
v 0 13 0.5
v 0 14 0.5
v 0 12 1.5
v 0 13 1.5
v 0 8 1.5
v 0 7 1.5
v 0 5 1.5
v 0 6 1.5
v 0 4 1.5
v 0 3 1.5
v 0 2 1.5
v 0 11 2.5
v 0 12 2.5
v 0 6 2.5
v 0 7 2.5
v 0 10 3.5
v 0 11 3.5
v 1 13 0.5
v 1 14 0.5
v 1 12 1.5
v 1 13 1.5
v 1 8 1.5
v 1 7 1.5
v 1 5 1.5
v 1 6 1.5
v 1 4 1.5
v 1 3 1.5
v 1 2 1.5
v 1 11 2.5
v 1 12 2.5
v 1 6 2.5
v 1 7 2.5
v 1 10 3.5
v 1 11 3.5
v 2 6 2.5
v 2 7 2.5
v -8 3 -0.5
v -8 2 -0.5
v -7 3 -0.5
v -7 2 -0.5
v -6 3 -0.5
v -6 2 -0.5
v -5 3 -0.5
v -5 2 -0.5
v -3 3 -0.5
v -2 6 -2.5
v -2 6 -1.5
v -1 12 -3.5
v -1 7 -3.5
v -1 13 -2.5
v -1 12 -2.5
v -1 7 -2.5
v -1 6 -2.5
v -1 14 -1.5
v -1 13 -1.5
v -1 6 -1.5
v -1 5 -1.5
v -1 4 -1.5
v -1 3 -1.5
v -1 2 -1.5
v 0 11 -4.5
v 0 10 -4.5
v 0 9 -4.5
v 0 8 -4.5
v 0 12 -3.5
v 0 11 -3.5
v 0 8 -3.5
v 0 7 -3.5
v 0 13 -2.5
v 0 12 -2.5
v 0 7 -2.5
v 0 6 -2.5
v 0 14 -1.5
v 0 13 -1.5
v 0 6 -1.5
v 0 5 -1.5
v 0 4 -1.5
v 0 3 -1.5
v 0 2 -1.5
v 1 12 -3.5
v 1 7 -3.5
v 1 13 -2.5
v 1 12 -2.5
v 1 7 -2.5
v 1 6 -2.5
v 1 14 -1.5
v 1 13 -1.5
v 1 6 -1.5
v 1 5 -1.5
v 1 4 -1.5
v 1 3 -1.5
v 1 2 -1.5
v 2 6 -2.5
v 2 6 -1.5
v -1 10 2.5
v 0 2 -0.5
v 0 2 0.5
v -1 14 -0.5
v 0 14 -0.5
v 1 14 -0.5

# faces

usemtl palette

f 1/1/1 2/1/1 3/1/1 4/1/1

f 5/7/1 6/7/1 7/7/1 8/7/1

f 9/7/1 10/7/1 11/7/1 12/7/1

f 13/7/1 14/7/1 15/7/1 10/7/1

f 16/7/1 13/7/1 10/7/1 9/7/1

f 17/7/1 18/7/1 19/7/1 14/7/1

f 20/7/1 17/7/1 14/7/1 13/7/1

f 21/7/1 22/7/1 23/7/1 18/7/1

f 24/7/1 25/7/1 17/7/1 20/7/1

f 26/5/1 24/5/1 20/5/1 27/5/1

f 28/4/1 29/4/1 30/4/1 31/4/1

f 32/4/1 33/4/1 34/4/1 35/4/1

f 36/7/1 37/7/1 21/7/1 25/7/1

f 38/7/1 39/7/1 40/7/1 41/7/1

f 42/7/1 38/7/1 41/7/1 43/7/1

f 44/7/1 45/7/1 46/7/1 47/7/1

f 48/1/1 44/1/1 47/1/1 49/1/1

f 50/7/1 51/7/1 52/7/1 39/7/1

f 53/7/1 50/7/1 39/7/1 38/7/1

f 54/7/1 55/7/1 56/7/1 45/7/1

f 57/7/1 54/7/1 45/7/1 44/7/1

f 58/1/1 57/1/1 44/1/1 48/1/1

f 59/1/1 58/1/1 48/1/1 60/1/1

f 61/7/1 62/7/1 51/7/1 50/7/1

f 63/7/1 64/7/1 54/7/1 57/7/1

f 65/1/1 63/1/1 57/1/1 58/1/1

f 66/3/1 65/3/1 58/3/1 59/3/1

f 67/12/1 66/12/1 59/12/1 68/12/1

f 69/7/1 70/7/1 61/7/1 71/7/1

f 72/7/1 73/7/1 74/7/1 75/7/1

f 76/7/1 72/7/1 75/7/1 64/7/1

f 77/1/1 78/1/1 63/1/1 65/1/1

f 79/7/1 80/7/1 69/7/1 73/7/1

f 81/7/1 79/7/1 73/7/1 72/7/1

f 82/1/1 83/1/1 78/1/1 77/1/1

f 84/7/1 85/7/1 86/7/1 87/7/1

f 88/7/1 84/7/1 87/7/1 89/7/1

f 90/7/1 88/7/1 89/7/1 91/7/1

f 92/7/1 90/7/1 91/7/1 93/7/1

f 94/7/1 92/7/1 93/7/1 95/7/1

f 96/7/1 97/7/1 98/7/1 85/7/1

f 99/7/1 100/7/1 101/7/1 97/7/1

f 102/6/1 103/6/1 104/6/1 105/6/1

f 106/11/1 102/11/1 105/11/1 107/11/1

f 108/6/1 106/6/1 107/6/1 109/6/1

f 110/7/1 111/7/1 100/7/1 99/7/1

f 112/9/1 113/9/1 108/9/1 114/9/1

f 115/8/1 112/8/1 114/8/1 116/8/1

f 117/7/1 118/7/1 110/7/1 119/7/1

f 120/5/1 121/5/1 122/5/1 123/5/1

f 124/8/1 125/8/1 126/8/1 127/8/1

f 128/6/1 124/6/1 127/6/1 129/6/1

f 130/12/1 128/12/1 129/12/1 131/12/1

f 132/6/1 130/6/1 131/6/1 113/6/1

f 133/7/1 134/7/1 117/7/1 135/7/1

f 136/7/1 137/7/1 133/7/1 138/7/1

f 139/7/1 140/7/1 141/7/1 142/7/1

f 143/7/1 139/7/1 142/7/1 144/7/1

f 145/7/1 143/7/1 144/7/1 146/7/1

f 147/7/1 148/7/1 149/7/1 150/7/1

f 151/9/1 152/9/1 153/9/1 154/9/1

f 155/8/1 151/8/1 154/8/1 156/8/1

f 157/7/1 158/7/1 159/7/1 160/7/1

f 161/7/1 162/7/1 163/7/1 164/7/1

f 165/4/1 166/4/1 167/4/1 168/4/1

f 169/1/1 165/1/1 168/1/1 170/1/1

f 171/4/1 169/4/1 170/4/1 172/4/1

f 173/4/1 174/4/1 175/4/1 166/4/1

f 176/1/1 173/1/1 166/1/1 165/1/1

f 177/4/1 176/4/1 165/4/1 169/4/1

f 178/1/1 177/1/1 169/1/1 171/1/1

f 179/4/1 178/4/1 171/4/1 180/4/1

f 181/4/1 182/4/1 177/4/1 178/4/1

f 183/1/1 181/1/1 178/1/1 179/1/1

f 184/4/1 185/4/1 186/4/1 187/4/1

f 188/1/1 184/1/1 187/1/1 189/1/1

f 190/4/1 188/4/1 189/4/1 182/4/1

f 191/1/1 190/1/1 182/1/1 181/1/1

f 192/4/1 191/4/1 181/4/1 183/4/1

f 193/7/1 194/7/1 195/7/1 196/7/1

f 197/4/1 198/4/1 184/4/1 188/4/1

f 199/1/1 197/1/1 188/1/1 190/1/1

f 200/4/1 199/4/1 190/4/1 191/4/1

f 46/7/2 201/7/2 202/7/2 203/7/2

f 204/4/2 205/4/2 206/4/2 207/4/2

f 208/7/2 209/7/2 210/7/2 138/7/2

f 211/9/2 212/9/2 213/9/2 214/9/2

f 215/8/2 216/8/2 212/8/2 211/8/2

f 217/7/2 218/7/2 219/7/2 220/7/2

f 221/7/2 222/7/2 218/7/2 217/7/2

f 223/7/2 224/7/2 222/7/2 221/7/2

f 225/7/2 226/7/2 227/7/2 228/7/2

f 229/7/2 230/7/2 231/7/2 232/7/2

f 233/7/2 234/7/2 230/7/2 229/7/2

f 235/7/2 236/7/2 234/7/2 233/7/2

f 237/7/2 238/7/2 236/7/2 235/7/2

f 239/7/2 240/7/2 238/7/2 237/7/2

f 241/7/2 232/7/2 242/7/2 243/7/2

f 244/7/2 243/7/2 245/7/2 246/7/2

f 247/6/2 248/6/2 249/6/2 250/6/2

f 251/11/2 252/11/2 248/11/2 247/11/2

f 253/6/2 254/6/2 252/6/2 251/6/2

f 255/7/2 244/7/2 246/7/2 256/7/2

f 257/9/2 258/9/2 253/9/2 259/9/2

f 260/8/2 261/8/2 258/8/2 257/8/2

f 262/7/2 263/7/2 255/7/2 264/7/2

f 265/2/2 266/2/2 267/2/2 268/2/2

f 269/7/2 270/7/2 271/7/2 272/7/2

f 273/1/2 274/1/2 270/1/2 269/1/2

f 275/11/2 276/11/2 274/11/2 273/11/2

f 277/6/2 259/6/2 276/6/2 275/6/2

f 278/7/2 279/7/2 262/7/2 280/7/2

f 281/7/2 158/7/2 278/7/2 282/7/2

f 283/7/2 284/7/2 285/7/2 286/7/2

f 287/7/2 288/7/2 284/7/2 283/7/2

f 289/7/2 290/7/2 161/7/2 291/7/2

f 292/1/2 293/1/2 290/1/2 289/1/2

f 294/7/2 286/7/2 295/7/2 296/7/2

f 297/7/2 291/7/2 298/7/2 299/7/2

f 300/7/2 289/7/2 291/7/2 297/7/2

f 301/1/2 292/1/2 289/1/2 300/1/2

f 174/1/2 175/1/2 292/1/2 301/1/2

f 302/7/2 294/7/2 296/7/2 303/7/2

f 304/7/2 300/7/2 297/7/2 305/7/2

f 306/1/2 301/1/2 300/1/2 304/1/2

f 186/3/2 174/3/2 301/3/2 306/3/2

f 196/7/2 307/7/2 302/7/2 195/7/2

f 308/7/2 309/7/2 310/7/2 311/7/2

f 312/7/2 305/7/2 309/7/2 308/7/2

f 313/1/2 306/1/2 304/1/2 314/1/2

f 315/7/2 311/7/2 196/7/2 193/7/2

f 316/7/2 308/7/2 311/7/2 315/7/2

f 317/1/2 313/1/2 314/1/2 318/1/2

f 319/7/2 320/7/2 321/7/2 322/7/2

f 323/7/2 322/7/2 324/7/2 325/7/2

f 326/7/2 319/7/2 322/7/2 323/7/2

f 327/4/2 328/4/2 329/4/2 330/4/2

f 331/1/2 332/1/2 328/1/2 327/1/2

f 333/4/2 334/4/2 332/4/2 331/4/2

f 335/7/2 336/7/2 337/7/2 338/7/2

f 339/7/2 325/7/2 336/7/2 335/7/2

f 340/7/2 323/7/2 325/7/2 339/7/2

f 341/4/2 330/4/2 342/4/2 343/4/2

f 344/1/2 327/1/2 330/1/2 341/1/2

f 345/4/2 331/4/2 327/4/2 344/4/2

f 346/1/2 333/1/2 331/1/2 345/1/2

f 347/4/2 348/4/2 333/4/2 346/4/2

f 349/7/2 335/7/2 338/7/2 350/7/2

f 351/7/2 340/7/2 339/7/2 352/7/2

f 353/5/2 354/5/2 340/5/2 351/5/2

f 355/1/2 341/1/2 343/1/2 356/1/2

f 357/4/2 344/4/2 341/4/2 355/4/2

f 358/4/2 345/4/2 344/4/2 357/4/2

f 359/4/2 346/4/2 345/4/2 358/4/2

f 360/1/2 347/1/2 346/1/2 359/1/2

f 361/7/2 352/7/2 349/7/2 362/7/2

f 363/4/2 355/4/2 356/4/2 364/4/2

f 365/1/2 357/1/2 355/1/2 363/1/2

f 366/4/2 358/4/2 357/4/2 365/4/2

f 367/1/2 359/1/2 358/1/2 366/1/2

f 368/4/2 360/4/2 359/4/2 367/4/2

f 369/7/2 362/7/2 370/7/2 371/7/2

f 372/4/2 365/4/2 363/4/2 373/4/2

f 374/1/2 366/1/2 365/1/2 372/1/2

f 375/4/2 367/4/2 366/4/2 374/4/2

f 376/7/2 377/7/2 378/7/2 379/7/2

f 1/1/3 380/1/3 381/1/3 2/1/3

f 380/1/3 382/1/3 383/1/3 381/1/3

f 382/1/3 384/1/3 385/1/3 383/1/3

f 384/1/3 386/1/3 387/1/3 385/1/3

f 5/7/3 25/7/3 21/7/3 6/7/3

f 386/4/3 33/4/3 28/4/3 387/4/3

f 16/7/3 45/7/3 56/7/3 13/7/3

f 21/7/3 71/7/3 61/7/3 22/7/3

f 24/7/3 75/7/3 74/7/3 25/7/3

f 26/5/3 64/5/3 75/5/3 24/5/3

f 28/4/3 388/4/3 67/4/3 29/4/3

f 33/1/3 207/1/3 388/1/3 28/1/3

f 32/4/3 204/4/3 207/4/3 33/4/3

f 36/7/3 73/7/3 69/7/3 37/7/3

f 61/7/3 119/7/3 110/7/3 62/7/3

f 63/7/3 123/7/3 122/7/3 64/7/3

f 66/3/3 127/3/3 126/3/3 65/3/3

f 67/12/3 129/12/3 127/12/3 66/12/3

f 388/1/3 131/1/3 129/1/3 67/1/3

f 207/8/3 113/8/3 131/8/3 388/8/3

f 69/7/3 135/7/3 117/7/3 70/7/3

f 76/7/3 121/7/3 209/7/3 72/7/3

f 79/7/3 138/7/3 133/7/3 80/7/3

f 81/7/3 208/7/3 138/7/3 79/7/3

f 82/1/3 389/1/3 390/1/3 83/1/3

f 110/7/3 391/7/3 392/7/3 111/7/3

f 112/9/3 211/9/3 214/9/3 113/9/3

f 115/8/3 215/8/3 211/8/3 112/8/3

f 117/7/3 393/7/3 394/7/3 118/7/3

f 209/7/3 395/7/3 396/7/3 210/7/3

f 121/13/3 397/13/3 395/13/3 209/13/3

f 120/5/3 398/5/3 397/5/3 121/5/3

f 124/8/3 399/8/3 400/8/3 125/8/3

f 128/6/3 401/6/3 399/6/3 124/6/3

f 130/12/3 402/12/3 401/12/3 128/12/3

f 132/6/3 403/6/3 402/6/3 130/6/3

f 133/7/3 404/7/3 405/7/3 134/7/3

f 389/1/3 406/1/3 407/1/3 390/1/3

f 136/7/3 408/7/3 409/7/3 137/7/3

f 391/7/3 410/7/3 411/7/3 392/7/3

f 393/7/3 412/7/3 413/7/3 394/7/3

f 395/7/3 150/7/3 149/7/3 396/7/3

f 397/2/3 414/2/3 150/2/3 395/2/3

f 398/5/3 415/5/3 414/5/3 397/5/3

f 399/8/3 416/8/3 417/8/3 400/8/3

f 401/6/3 418/6/3 416/6/3 399/6/3

f 402/12/3 419/12/3 418/12/3 401/12/3

f 403/6/3 420/6/3 419/6/3 402/6/3

f 404/7/3 421/7/3 422/7/3 405/7/3

f 406/3/3 423/3/3 424/3/3 407/3/3

f 408/7/3 425/7/3 426/7/3 409/7/3

f 410/7/3 427/7/3 428/7/3 411/7/3

f 412/7/3 429/7/3 430/7/3 413/7/3

f 414/2/3 431/2/3 226/2/3 150/2/3

f 415/2/3 432/2/3 431/2/3 414/2/3

f 416/7/3 433/7/3 434/7/3 417/7/3

f 418/6/3 435/6/3 433/6/3 416/6/3

f 419/1/3 436/1/3 435/1/3 418/1/3

f 420/1/3 437/1/3 436/1/3 419/1/3

f 421/7/3 438/7/3 439/7/3 422/7/3

f 147/7/3 225/7/3 228/7/3 148/7/3

f 423/3/3 440/3/3 441/3/3 424/3/3

f 425/7/3 442/7/3 443/7/3 426/7/3

f 427/7/3 255/7/3 256/7/3 428/7/3

f 151/9/3 257/9/3 259/9/3 152/9/3

f 155/8/3 260/8/3 257/8/3 151/8/3

f 429/7/3 262/7/3 264/7/3 430/7/3

f 226/7/3 160/7/3 159/7/3 227/7/3

f 431/13/3 268/13/3 160/13/3 226/13/3

f 432/2/3 265/2/3 268/2/3 431/2/3

f 433/7/3 269/7/3 272/7/3 434/7/3

f 435/1/3 273/1/3 269/1/3 433/1/3

f 436/11/3 275/11/3 273/11/3 435/11/3

f 437/6/3 277/6/3 275/6/3 436/6/3

f 438/7/3 278/7/3 280/7/3 439/7/3

f 440/1/3 444/1/3 445/1/3 441/1/3

f 442/7/3 281/7/3 282/7/3 443/7/3

f 263/7/3 302/7/3 303/7/3 255/7/3

f 266/7/3 304/7/3 305/7/3 267/7/3

f 270/3/3 186/3/3 306/3/3 271/3/3

f 274/10/3 187/10/3 186/10/3 270/10/3

f 276/1/3 189/1/3 187/1/3 274/1/3

f 259/7/3 182/7/3 189/7/3 276/7/3

f 279/7/3 196/7/3 195/7/3 262/7/3

f 268/7/3 312/7/3 308/7/3 160/7/3

f 158/7/3 315/7/3 193/7/3 278/7/3

f 157/7/3 316/7/3 315/7/3 158/7/3

f 444/1/3 317/1/3 318/1/3 445/1/3

f 291/7/3 326/7/3 323/7/3 298/7/3

f 307/7/3 349/7/3 350/7/3 302/7/3

f 309/7/3 351/7/3 352/7/3 310/7/3

f 305/5/3 353/5/3 351/5/3 309/5/3

f 311/7/3 361/7/3 362/7/3 196/7/3

f 184/4/3 363/4/3 364/4/3 185/4/3

f 192/4/3 368/4/3 367/4/3 191/4/3

f 193/7/3 369/7/3 371/7/3 194/7/3

f 197/4/3 372/4/3 373/4/3 198/4/3

f 199/1/3 374/1/3 372/1/3 197/1/3

f 200/4/3 375/4/3 374/4/3 199/4/3

f 352/7/3 376/7/3 379/7/3 349/7/3

f 4/1/4 3/1/4 446/1/4 447/1/4

f 447/1/4 446/1/4 448/1/4 449/1/4

f 449/1/4 448/1/4 450/1/4 451/1/4

f 451/1/4 450/1/4 452/1/4 453/1/4

f 8/7/4 7/7/4 18/7/4 17/7/4

f 453/4/4 452/4/4 31/4/4 34/4/4

f 12/7/4 11/7/4 202/7/4 201/7/4

f 10/7/4 15/7/4 43/7/4 203/7/4

f 14/7/4 19/7/4 38/7/4 42/7/4

f 18/7/4 23/7/4 50/7/4 53/7/4

f 27/5/4 20/5/4 55/5/4 54/5/4

f 31/4/4 30/4/4 68/4/4 454/4/4

f 34/1/4 31/1/4 454/1/4 206/1/4

f 35/4/4 34/4/4 206/4/4 205/4/4

f 41/7/4 40/7/4 85/7/4 84/7/4

f 43/7/4 41/7/4 84/7/4 88/7/4

f 203/7/4 43/7/4 88/7/4 90/7/4

f 46/7/4 203/7/4 90/7/4 92/7/4

f 47/7/4 46/7/4 92/7/4 94/7/4

f 49/1/4 47/1/4 94/1/4 455/1/4

f 39/7/4 52/7/4 97/7/4 96/7/4

f 60/1/4 48/1/4 456/1/4 104/1/4

f 68/12/4 59/12/4 103/12/4 102/12/4

f 454/1/4 68/1/4 102/1/4 106/1/4

f 206/8/4 454/8/4 106/8/4 108/8/4

f 87/7/4 86/7/4 457/7/4 140/7/4

f 89/7/4 87/7/4 140/7/4 139/7/4

f 91/7/4 89/7/4 139/7/4 143/7/4

f 93/7/4 91/7/4 143/7/4 145/7/4

f 95/7/4 93/7/4 145/7/4 458/7/4

f 85/7/4 98/7/4 459/7/4 460/7/4

f 455/1/4 94/1/4 461/1/4 462/1/4

f 97/7/4 101/7/4 463/7/4 464/7/4

f 104/7/4 456/7/4 465/7/4 466/7/4

f 105/6/4 104/6/4 466/6/4 467/6/4

f 107/11/4 105/11/4 467/11/4 468/11/4

f 109/6/4 107/6/4 468/6/4 469/6/4

f 114/9/4 108/9/4 213/9/4 212/9/4

f 116/8/4 114/8/4 212/8/4 216/8/4

f 142/7/4 141/7/4 470/7/4 471/7/4

f 144/7/4 142/7/4 471/7/4 472/7/4

f 146/7/4 144/7/4 472/7/4 473/7/4

f 140/7/4 457/7/4 474/7/4 475/7/4

f 458/7/4 145/7/4 476/7/4 477/7/4

f 460/7/4 459/7/4 478/7/4 479/7/4

f 462/1/4 461/1/4 480/1/4 481/1/4

f 464/7/4 463/7/4 482/7/4 483/7/4

f 466/7/4 465/7/4 484/7/4 485/7/4

f 467/6/4 466/6/4 485/6/4 486/6/4

f 468/11/4 467/11/4 486/11/4 487/11/4

f 469/6/4 468/6/4 487/6/4 488/6/4

f 471/7/4 470/7/4 219/7/4 218/7/4

f 472/7/4 471/7/4 218/7/4 222/7/4

f 473/7/4 472/7/4 222/7/4 224/7/4

f 475/7/4 474/7/4 489/7/4 220/7/4

f 477/7/4 476/7/4 223/7/4 490/7/4

f 479/7/4 478/7/4 491/7/4 492/7/4

f 481/1/4 480/1/4 493/1/4 494/1/4

f 483/7/4 482/7/4 495/7/4 496/7/4

f 485/7/4 484/7/4 497/7/4 498/7/4

f 486/6/4 485/6/4 498/6/4 499/6/4

f 487/11/4 486/11/4 499/11/4 500/11/4

f 488/6/4 487/6/4 500/6/4 501/6/4

f 220/7/4 489/7/4 231/7/4 230/7/4

f 217/7/4 220/7/4 230/7/4 234/7/4

f 221/7/4 217/7/4 234/7/4 236/7/4

f 223/7/4 221/7/4 236/7/4 238/7/4

f 490/7/4 223/7/4 238/7/4 240/7/4

f 492/7/4 491/7/4 242/7/4 232/7/4

f 494/1/4 493/1/4 239/1/4 502/1/4

f 496/7/4 495/7/4 245/7/4 243/7/4

f 498/7/4 497/7/4 503/7/4 249/7/4

f 499/6/4 498/6/4 249/6/4 248/6/4

f 500/11/4 499/11/4 248/11/4 252/11/4

f 501/6/4 500/6/4 252/6/4 254/6/4

f 154/9/4 153/9/4 253/9/4 258/9/4

f 156/8/4 154/8/4 258/8/4 261/8/4

f 229/7/4 232/7/4 285/7/4 284/7/4

f 233/7/4 229/7/4 284/7/4 288/7/4

f 235/7/4 233/7/4 288/7/4 162/7/4

f 237/7/4 235/7/4 162/7/4 161/7/4

f 239/7/4 237/7/4 161/7/4 290/7/4

f 502/1/4 239/1/4 290/1/4 293/1/4

f 241/7/4 243/7/4 295/7/4 286/7/4

f 249/1/4 503/1/4 292/1/4 175/1/4

f 247/10/4 250/10/4 174/10/4 173/10/4

f 251/1/4 247/1/4 173/1/4 176/1/4

f 253/7/4 251/7/4 176/7/4 177/7/4

f 164/7/4 163/7/4 321/7/4 320/7/4

f 162/7/4 288/7/4 324/7/4 322/7/4

f 168/4/4 167/4/4 329/4/4 328/4/4

f 170/1/4 168/1/4 328/1/4 332/1/4

f 172/4/4 170/4/4 332/4/4 334/4/4

f 283/7/4 286/7/4 337/7/4 336/7/4

f 287/7/4 283/7/4 336/7/4 325/7/4

f 166/4/4 175/4/4 342/4/4 330/4/4

f 180/4/4 171/4/4 333/4/4 348/4/4

f 297/5/4 299/5/4 340/5/4 354/5/4

f 196/7/4 195/7/4 370/7/4 362/7/4

f 339/7/4 335/7/4 378/7/4 377/7/4

f 1/1/5 4/1/5 447/1/5 380/1/5

f 380/1/5 447/1/5 449/1/5 382/1/5

f 382/1/5 449/1/5 451/1/5 384/1/5

f 384/1/5 451/1/5 453/1/5 386/1/5

f 5/7/5 8/7/5 17/7/5 25/7/5

f 386/4/5 453/4/5 34/4/5 33/4/5

f 9/7/5 12/7/5 201/7/5 46/7/5

f 16/7/5 9/7/5 46/7/5 45/7/5

f 20/7/5 13/7/5 56/7/5 55/7/5

f 26/5/5 27/5/5 54/5/5 64/5/5

f 32/4/5 35/4/5 205/4/5 204/4/5

f 36/7/5 25/7/5 74/7/5 73/7/5

f 48/1/5 49/1/5 455/1/5 456/1/5

f 59/1/5 60/1/5 104/1/5 103/1/5

f 207/8/5 206/8/5 108/8/5 113/8/5

f 76/7/5 64/7/5 122/7/5 121/7/5

f 77/1/5 65/1/5 126/1/5 125/1/5

f 81/7/5 72/7/5 209/7/5 208/7/5

f 82/1/5 77/1/5 125/1/5 389/1/5

f 94/7/5 95/7/5 458/7/5 461/7/5

f 456/1/5 455/1/5 462/1/5 465/1/5

f 108/6/5 109/6/5 469/6/5 213/6/5

f 115/8/5 116/8/5 216/8/5 215/8/5

f 132/6/5 113/6/5 214/6/5 403/6/5

f 138/7/5 210/7/5 396/7/5 504/7/5

f 389/1/5 125/1/5 400/1/5 406/1/5

f 136/7/5 138/7/5 504/7/5 408/7/5

f 145/7/5 146/7/5 473/7/5 476/7/5

f 461/7/5 458/7/5 477/7/5 480/7/5

f 465/1/5 462/1/5 481/1/5 484/1/5

f 213/6/5 469/6/5 488/6/5 505/6/5

f 214/6/5 213/6/5 505/6/5 506/6/5

f 403/6/5 214/6/5 506/6/5 420/6/5

f 504/7/5 396/7/5 149/7/5 148/7/5

f 406/3/5 400/3/5 417/3/5 423/3/5

f 408/7/5 504/7/5 148/7/5 425/7/5

f 476/7/5 473/7/5 224/7/5 223/7/5

f 480/7/5 477/7/5 490/7/5 493/7/5

f 484/1/5 481/1/5 494/1/5 497/1/5

f 505/6/5 488/6/5 501/6/5 153/6/5

f 506/6/5 505/6/5 153/6/5 152/6/5

f 420/1/5 506/1/5 152/1/5 437/1/5

f 147/7/5 150/7/5 226/7/5 225/7/5

f 423/3/5 417/3/5 434/3/5 440/3/5

f 425/7/5 148/7/5 228/7/5 442/7/5

f 493/7/5 490/7/5 240/7/5 239/7/5

f 497/1/5 494/1/5 502/1/5 503/1/5

f 153/6/5 501/6/5 254/6/5 253/6/5

f 155/8/5 156/8/5 261/8/5 260/8/5

f 437/6/5 152/6/5 259/6/5 277/6/5

f 228/7/5 227/7/5 159/7/5 158/7/5

f 440/1/5 434/1/5 272/1/5 444/1/5

f 442/7/5 228/7/5 158/7/5 281/7/5

f 503/1/5 502/1/5 293/1/5 292/1/5

f 250/1/5 249/1/5 175/1/5 174/1/5

f 259/7/5 253/7/5 177/7/5 182/7/5

f 268/7/5 267/7/5 305/7/5 312/7/5

f 272/1/5 271/1/5 306/1/5 313/1/5

f 157/7/5 160/7/5 308/7/5 316/7/5

f 444/1/5 272/1/5 313/1/5 317/1/5

f 161/7/5 164/7/5 320/7/5 319/7/5

f 291/7/5 161/7/5 319/7/5 326/7/5

f 171/4/5 172/4/5 334/4/5 333/4/5

f 299/7/5 298/7/5 323/7/5 340/7/5

f 179/4/5 180/4/5 348/4/5 347/4/5

f 305/5/5 297/5/5 354/5/5 353/5/5

f 183/1/5 179/1/5 347/1/5 360/1/5

f 311/7/5 310/7/5 352/7/5 361/7/5

f 192/4/5 183/4/5 360/4/5 368/4/5

f 193/7/5 196/7/5 362/7/5 369/7/5

f 200/4/5 191/4/5 367/4/5 375/4/5

f 352/7/5 339/7/5 377/7/5 376/7/5

f 2/1/6 381/1/6 446/1/6 3/1/6

f 381/1/6 383/1/6 448/1/6 446/1/6

f 383/1/6 385/1/6 450/1/6 448/1/6

f 385/1/6 387/1/6 452/1/6 450/1/6

f 6/7/6 21/7/6 18/7/6 7/7/6

f 387/4/6 28/4/6 31/4/6 452/4/6

f 10/7/6 203/7/6 202/7/6 11/7/6

f 14/7/6 42/7/6 43/7/6 15/7/6

f 18/7/6 53/7/6 38/7/6 19/7/6

f 22/7/6 61/7/6 50/7/6 23/7/6

f 29/4/6 67/4/6 68/4/6 30/4/6

f 37/7/6 69/7/6 71/7/6 21/7/6

f 39/7/6 96/7/6 85/7/6 40/7/6

f 51/7/6 99/7/6 97/7/6 52/7/6

f 62/7/6 110/7/6 99/7/6 51/7/6

f 70/7/6 117/7/6 119/7/6 61/7/6

f 78/1/6 120/1/6 123/1/6 63/1/6

f 80/7/6 133/7/6 135/7/6 69/7/6

f 83/1/6 390/1/6 120/1/6 78/1/6

f 85/7/6 460/7/6 457/7/6 86/7/6

f 97/7/6 464/7/6 459/7/6 98/7/6

f 100/7/6 507/7/6 463/7/6 101/7/6

f 111/7/6 392/7/6 507/7/6 100/7/6

f 118/7/6 394/7/6 391/7/6 110/7/6

f 134/7/6 405/7/6 393/7/6 117/7/6

f 390/1/6 407/1/6 398/1/6 120/1/6

f 137/7/6 409/7/6 404/7/6 133/7/6

f 140/7/6 475/7/6 470/7/6 141/7/6

f 460/7/6 479/7/6 474/7/6 457/7/6

f 464/7/6 483/7/6 478/7/6 459/7/6

f 507/7/6 508/7/6 482/7/6 463/7/6

f 392/7/6 411/7/6 508/7/6 507/7/6

f 394/7/6 413/7/6 410/7/6 391/7/6

f 405/7/6 422/7/6 412/7/6 393/7/6

f 407/3/6 424/3/6 415/3/6 398/3/6

f 409/7/6 426/7/6 421/7/6 404/7/6

f 475/7/6 220/7/6 219/7/6 470/7/6

f 479/7/6 492/7/6 489/7/6 474/7/6

f 483/7/6 496/7/6 491/7/6 478/7/6

f 508/7/6 509/7/6 495/7/6 482/7/6

f 411/7/6 428/7/6 509/7/6 508/7/6

f 413/7/6 430/7/6 427/7/6 410/7/6

f 422/7/6 439/7/6 429/7/6 412/7/6

f 424/3/6 441/3/6 432/3/6 415/3/6

f 426/7/6 443/7/6 438/7/6 421/7/6

f 492/7/6 232/7/6 231/7/6 489/7/6

f 496/7/6 243/7/6 242/7/6 491/7/6

f 509/7/6 246/7/6 245/7/6 495/7/6

f 428/7/6 256/7/6 246/7/6 509/7/6

f 430/7/6 264/7/6 255/7/6 427/7/6

f 439/7/6 280/7/6 262/7/6 429/7/6

f 441/1/6 445/1/6 265/1/6 432/1/6

f 443/7/6 282/7/6 278/7/6 438/7/6

f 241/7/6 286/7/6 285/7/6 232/7/6

f 244/7/6 296/7/6 295/7/6 243/7/6

f 255/7/6 303/7/6 296/7/6 244/7/6

f 262/7/6 195/7/6 302/7/6 263/7/6

f 265/1/6 314/1/6 304/1/6 266/1/6

f 278/7/6 193/7/6 196/7/6 279/7/6

f 445/1/6 318/1/6 314/1/6 265/1/6

f 162/7/6 322/7/6 321/7/6 163/7/6

f 287/7/6 325/7/6 324/7/6 288/7/6

f 166/4/6 330/4/6 329/4/6 167/4/6

f 294/7/6 338/7/6 337/7/6 286/7/6

f 174/4/6 343/4/6 342/4/6 175/4/6

f 302/7/6 350/7/6 338/7/6 294/7/6

f 186/1/6 356/1/6 343/1/6 174/1/6

f 196/7/6 362/7/6 349/7/6 307/7/6

f 185/4/6 364/4/6 356/4/6 186/4/6

f 194/7/6 371/7/6 370/7/6 195/7/6

f 198/4/6 373/4/6 363/4/6 184/4/6

f 349/7/6 379/7/6 378/7/6 335/7/6

# numNormals 6
# numTexCoords 13
# numVerts 509
# numFaces 510
